<svg xmlns="http://www.w3.org/2000/svg" viewBox="0 0 195.94 195.94"><defs><style>.cls-1{fill:#067c63;}</style></defs><title>资源 1</title><g id="图层_2" data-name="图层 2"><g id="图层_1-2" data-name="图层 1"><path id="_复合路径_" data-name="&lt;复合路径&gt;" class="cls-1" d="M98,0a98,98,0,1,0,98,98A98.11,98.11,0,0,0,98,0Zm0,192.17A94.2,94.2,0,1,1,192.17,98,94.32,94.32,0,0,1,98,192.17ZM98,31.65A66.32,66.32,0,1,0,164.29,98,66.41,66.41,0,0,0,98,31.65ZM98,162A64.06,64.06,0,1,1,162,98,64.16,64.16,0,0,1,98,162ZM98,37.68A60.29,60.29,0,1,0,158.26,98,60.37,60.37,0,0,0,98,37.68Zm38.08,56.26a3.75,3.75,0,1,1-4.52,6L129,98v6.11l7,5.3a3.75,3.75,0,1,1-4.52,6l-2.52-1.9v6.11l7,5.3a3.75,3.75,0,1,1-4.52,6l-29.66-22.35v6.11l30.41,22.91a3.75,3.75,0,1,1-4.51,6l-25.9-19.51v20.73a3.9,3.9,0,0,1-7.8,0V124.08L68.18,143.59a3.75,3.75,0,1,1-4.52-6l30.41-22.91v-6.11L64.41,130.93a3.75,3.75,0,0,1-4.52-6l7-5.3v-6.11l-2.52,1.9a3.75,3.75,0,0,1-4.52-6l7-5.3V98l-2.52,1.9a3.75,3.75,0,0,1-4.52-6L94.07,68.19V62.08L64.41,84.44a3.75,3.75,0,0,1-4.52-6l7-5.31V64.29a3.9,3.9,0,0,1,7.8,0v3L94.07,52.69V45.34a3.9,3.9,0,0,1,7.8,0v7.35l19.34,14.57v-3a3.9,3.9,0,1,1,7.8,0v8.85l7,5.31a3.75,3.75,0,1,1-4.52,6L101.87,62.08v6.11ZM74.73,113.76,94.07,99.19V93.08L74.73,107.65Zm0-15.5L94.07,83.69V77.58L74.73,92.15Zm27.14.93,19.34,14.57v-6.11L101.87,93.08Zm0-15.5,19.34,14.57V92.15L101.87,77.58ZM183.71,102a3.7,3.7,0,0,0-2.89-1.58,4.85,4.85,0,0,0-2,.27,4.24,4.24,0,0,0-1.36,1.11,4.53,4.53,0,0,0-.51.79q-.35.64-.42.84l-.44.93-.44,1-.2.43a4.09,4.09,0,0,1-.44.7,1.23,1.23,0,0,1-1.25.57,1.39,1.39,0,0,1-1.16-.81,3.34,3.34,0,0,1-.28-1.84,7,7,0,0,1,.78-2.61,7.32,7.32,0,0,1,1.55-2l-3.08-.27a7.81,7.81,0,0,0-2,4.78,5.66,5.66,0,0,0,.87,3.79,4,4,0,0,0,3.14,1.75,3.6,3.6,0,0,0,3.12-1,9.78,9.78,0,0,0,1.75-2.68c.15-.35.34-.8.57-1.37a4.38,4.38,0,0,1,.53-1,1.09,1.09,0,0,1,1-.59c.95.08,1.36.86,1.23,2.32a7.34,7.34,0,0,1-1.73,4.08l2.88.26a8.13,8.13,0,0,0,1.57-4.14A5.39,5.39,0,0,0,183.71,102ZM91.16,26.08l-.33-5.83,2.25-.13,4.11,5.62,3.1-.17-4.36-5.94a3.8,3.8,0,0,0,1.9-1.6,4.5,4.5,0,0,0,.57-2.55,4.1,4.1,0,0,0-1.38-3,4.4,4.4,0,0,0-3.33-1l-6,.33.81,14.43Zm2.53-12a2.06,2.06,0,0,1,1.44.39,1.64,1.64,0,0,1,.58,1.26A1.61,1.61,0,0,1,95.28,17a2.13,2.13,0,0,1-1.4.54l-3.19.17-.19-3.5ZM75.21,27.31A6.42,6.42,0,0,0,84.56,25a7.78,7.78,0,0,0,.58-5.63A7.75,7.75,0,0,0,82,14.63,6.41,6.41,0,0,0,72.62,17a7.69,7.69,0,0,0-.56,5.63A7.86,7.86,0,0,0,75.21,27.31ZM75,18.38a3.65,3.65,0,0,1,2.47-2,3.61,3.61,0,0,1,3.1.61,5,5,0,0,1,1.94,3,5.08,5.08,0,0,1-.29,3.57A3.75,3.75,0,0,1,76.63,25a5,5,0,0,1-1.92-3A5,5,0,0,1,75,18.38ZM48.9,44.88l-1.14-3.39L52,38l3.12,1.76,2.19-1.81L43.76,30.28l-2,1.63,5,14.76Zm.88-8.24-2.94,2.42L45.13,34ZM178.07,123.1l-11.19-3.71-.84,2.54,11.19,3.71-1.29,3.91,2.52.84L181.89,120l-2.53-.84ZM64.34,34l-4-8.39,9.95,5.57,2-.94L66.14,17.19,63.79,18.3l3.95,8.36L57.86,21.1l-2.06,1L62,35.14Zm103.94,80.17,14.14,3,.55-2.6-14.14-3Zm-63.14-98,2.41,5,1.47.2,3.58-4.21L111.29,27l2.62.35L115.82,13l-2.62-.35-4.53,5.43-2.94-6.43-2.64-.35L101.18,25.6l2.66.36ZM160.75,62.4,173.18,55l-1.35-2.28-12.44,7.36ZM40.61,54l-7.12-6,11.37.9,1.42-1.7L35.21,38l-1.67,2,7.08,5.94L29.32,45l-1.47,1.75L38.93,56Zm124,16.45,15.51-.77L179,67.06l-11.06.65,8-7.62-1.17-2.71L163.6,68.17Zm4.59,14.86,2.59-.65L170,77.84l3.61-.91L175,82.3l2.54-.65-1.35-5.36,2.7-.69,1.68,6.67,2.58-.65-2.33-9.26-14,3.53Zm-51.92-57,2.29-2.76,5.2,1.76.15,3.58,2.69.91L127,16.26l-2.43-.82-9.94,12Zm7.29-8.95.18,5.35-3.6-1.22Zm45.11,70.27,5.83-.45.17,2.24-5.53,4.23.24,3.09,5.85-4.47a3.8,3.8,0,0,0,1.64,1.85,4.36,4.36,0,0,0,2.56.52,4.12,4.12,0,0,0,3-1.44,4.4,4.4,0,0,0,.94-3.35l-.47-6L169.47,87Zm11.82-.92.25,3.19a2.08,2.08,0,0,1-.36,1.45,1.89,1.89,0,0,1-2.58.2,2,2,0,0,1-.56-1.38L178,89Zm-43.8-54.35-5.82-3.11,5.56-10.4-2.36-1.26-6.81,12.74,8.17,4.37ZM149.14,45a6.6,6.6,0,0,0,4.27-2.51l5.49-6.33-2-1.75-5.56,6.41A3.78,3.78,0,0,1,149,42.28a2.95,2.95,0,0,1-3.2-2.78,3.8,3.8,0,0,1,1.09-2.45l5.56-6.41-2-1.74L145,35.23a6.54,6.54,0,0,0-1.89,4.56,5.63,5.63,0,0,0,6,5.25Zm3.4,5.65,7.27-5.78-3.16,11L158,57.6l11.31-9-1.62-2-7.24,5.75,3.16-10.89-1.42-1.79-11.31,9ZM48.26,149.86c-.63.16,0,.81.09.94s.3.1.42.19c.49.35.81.95,1.13,1,1.25.17,1.56-.76.75-1.56A2.59,2.59,0,0,0,48.26,149.86Zm92.59,19.33a8,8,0,0,1-2.47.72c-1.89.39-3.37-.29-3.84-.18s-.28,1.28.09,1.85c1,1.63,4.24,1.13,6.15.59a10.49,10.49,0,0,0,2.17-1.32c.68-.41,1.36-.53,1.32-1s.19-.56-.07-.92C143.59,168.1,142.28,168.36,140.85,169.19Zm-94-22.41a2.74,2.74,0,0,0-.8-.46c-.31-.08-.35.11-.63.14a.58.58,0,0,0-.59.42c-.26.61.38,1.36,1.44,1.86C47.58,149.34,47.9,147.48,46.88,146.78ZM93.3,173.65c-.94-.43-2.5.47-2.91-.07-.17-.23.23-.68.29-1a.92.92,0,0,0-.61-1.09c-.27-.07-.26-.41.06-.44a4.79,4.79,0,0,1,1.13.06,1.7,1.7,0,0,0,1.92-.73.85.85,0,0,0-.27-1C92.46,169,91,169,89.52,169s-3.34,0-3.69.56c-.16.29-.51.62-.69,1a3.58,3.58,0,0,1-.73,1.23c-1,.66-1.25,2-1.43,1.57s-.6-.3-.88-.37c-.13,0-.12-.39,0-.53s.17,0,.38-.09A2.75,2.75,0,0,0,84,171c.3-1.12.75-2,.25-2.62a2.57,2.57,0,0,0-1.93-.85,3.79,3.79,0,0,0-1.47.2c-.73.31-1,1.2-1.42,2.28a12.61,12.61,0,0,0-.78,1.69c-.24.87-.55,2.1-.69,2.73a6.22,6.22,0,0,0,0,3.42c.17.53,0,1.27.74,1.31s.33-2.25.52-3.29c.08-.43.18-.84.52-1,.11-.06.21-.26.39-.16s-.13.71.18.71c.54,0,.83-.65,1.25-.4s-.16.77-.59,1.13c-.84.72-1.24,2.06-.08,2.38.5.13,1.08-.54,1.33-1.22s.14-.87.34-1.29.44-.4.67-.79a11.18,11.18,0,0,1,.7-1.27c.37-.52.91-1,1.26-1.46a5.1,5.1,0,0,1,1.17-1.19,1.46,1.46,0,0,1,1.45-.18c.27.19-.86.84-1.55,1.48a5.67,5.67,0,0,0-1.74,3.48c-.08.59-.4,2.21,0,2.57a1,1,0,0,0,.89.31c.91-.09.59-1.8,1.12-2.52.11-.15.22-.44.48-.3s-.46,3.56-.92,5.57a24.09,24.09,0,0,0-.47,3.6c0,.45,0,.88.61,1,.94.18,1.3-1.83,1.52-3.08a8.69,8.69,0,0,1,1-3.1A4.86,4.86,0,0,1,91,179.05c.73-.16,1.35-1,1.77-1.37A6.21,6.21,0,0,0,94,175.09,1.1,1.1,0,0,0,93.3,173.65Zm-11.81-.87a2,2,0,0,0-1.36,1.41c-.07.19-.31.13-.35-.06a2.76,2.76,0,0,1,.31-1.8c.5-.78.7-1.41,1.09-1.91s1.15-.89,1.3-.72c.28.33-.39.7-.42,1a2,2,0,0,1-.48,1.33C81.4,172.34,82,172.64,81.49,172.78Zm6.17.78c-.37.59-.86.84-1.12.55s.78-1.09,1.22-1.65c.54-.71.65-.59.84-.43S88.18,172.75,87.66,173.56ZM91,177.22c-.55.35-.86.5-1.21.45-.19,0-.56-.47-.45-.68.26-.52.08-.73.21-1,.21-.47.91-.3,1.35-.3.59,0,1-.22,1,.21A2.33,2.33,0,0,1,91,177.22ZM49.79,152.51c-.91-.47-1.58-.84-1.77-1.39,0,0-.19-.62-.39-.7s-.26.25-.6,0a10.29,10.29,0,0,0-2.49-1.85c-.42-.16-.92-1-1.43-1.07s-1.79.36-1.3,1.44c.22.47,1.58.34,2.6,1.16.49.39,1,.15,1.2.84.07.28-.07.25-.22.26A26.42,26.42,0,0,0,41.82,150c-1.16-.24-2.19-.42-2.57.64-.09.23.15,1.1-.53.88a2.86,2.86,0,0,0-2.08,0,8.86,8.86,0,0,0-.73.77c-.5.68.4,1.27.14,1.49-.11.1-.76-.35-1.36-.47-.4-.07-.84.35-1,.57s0,.42.63,1a8.72,8.72,0,0,0,2.94,1.79,3.3,3.3,0,0,1,1.1.85c.23.36-.26.68-.71.45-.93-.47-4.89-2.38-4.36-.16a3,3,0,0,0,1.21,1.38c.32.15,1.3.27,1.36.77s-1.44,1-1.16,2c.19.59.53,1,.91.84.62-.31,1.75-1.69,2.08-1.67,1,.08,2.46,2.4,3.48,1.82,1.19-.67,1-1.56.66-1.81a17.26,17.26,0,0,1-2.32-1.53c-.2-.2.19-.49.51-.68.78-.46,1.94,1.36,3.09,2.32.86.72.67.81,1.19,1.32a1.31,1.31,0,0,0,2.25-.76c.14-.47-2.15-2.2-3-2.79-1.1-.74-1.74-.92-1.77-1.49s.76-.18.77-.17c1,.89,5.53,1.34,5.3-1.55-.08-1,.75-1.08-.19-1.79-.08-.06-1.13-.62-1.2-.91a.53.53,0,0,1,.86-.43c.66.45,1.63,1.36,1.77,1.43C50.42,154.72,51.4,153.35,49.79,152.51Zm-5.5-.65c.19.31-.14.54-.84.47-1-.11-2.5-.26-2.36-.87S44,151.4,44.29,151.86Zm-7.07,1.28c-.11-.78,1.44-.61,1.69-.37C39.36,153.2,37.34,154,37.22,153.14Zm4.46,1.46c-.76.57-1,1.31-1.33,1.28s-.76-.39-1.14-.56c-.68-.28-1.3-.44-1.37-.61-.15-.35.32-.07.65-.32,1.19-.88,1.7-1.43,2.21-1.33s.76.32,1.07.37c.62.1,1,0,1,.09A4.17,4.17,0,0,1,41.68,154.6Zm3.81,1.6c.22.15-.07.34-.47.45s-2.21.27-2.27-.25.78-1.37,1.7-1.71c.28-.2.46-.73.72-.85.44-.2,1.15.43,1.06.57s-.73.31-.87.72S45.13,155.94,45.49,156.2Zm61,14.67a3.25,3.25,0,0,1,.84-1.07,2.54,2.54,0,0,0,.42-.47.71.71,0,0,0,0-.82.87.87,0,0,0-.88-.31c-.58.16-1.43,1.21-1.82,1.84a7.69,7.69,0,0,0-.56,1.16,5.71,5.71,0,0,1-.58,1.19,1.34,1.34,0,0,0,1.46,1.79c.1,0,.15-.16.2-.29a.84.84,0,0,1,.68-.59c.21,0,.37.11.54.28a.86.86,0,0,0,.86.32c.4-.1.69-.62,1-1.07l.2-.34a11.55,11.55,0,0,1,2.6-2.71c.3-.11.49-.13.59-.07s.14.25.18.5l0,.22a.59.59,0,0,0,.34.41c.12.08.23.15.23.28,0,.31-.25.49-.51.68s-.52.39-.54.72a1,1,0,0,0,.3.94.69.69,0,0,0,.65.1c.37-.11.53-.51.71-.92a4.15,4.15,0,0,1,.38-.76,1.26,1.26,0,0,1,.77-.48,1.25,1.25,0,0,0,.68-.37.87.87,0,0,0,.23-.75,1.13,1.13,0,0,0-.7-.76.7.7,0,0,0-1,.31c-.06.08-.12.15-.16.16l0,0c-.31-.31-.15-.66,0-1a2.44,2.44,0,0,0,.2-.55.57.57,0,0,0-.13-.56c-.2-.16-.58-.15-1.12.05a1.79,1.79,0,0,0-.61.51,2.25,2.25,0,0,1-.63.56,6.41,6.41,0,0,0-1.51,1.07,2.45,2.45,0,0,1-.68.49,2.84,2.84,0,0,1-.7.1c-.51.05-1.08.09-1.28.32l-.32.47c-.14.24-.28.48-.41.51l-.09,0c-.2-.15,0-.51.13-.87Zm-38.75-8.06c-.21-.38.51-1.29-.56-1.3a3.06,3.06,0,0,0-1,0c-.18.11-.5.82-.58.79a17.63,17.63,0,0,0-2.53-.89c-1.13-.29-1.76-1.1-2.66-.82a3.45,3.45,0,0,0-1,.38,1,1,0,0,0,.22,1.69c.29.17,2.25-.13,3,0s1.79.44,1.87.82c0,.18-.18.49-.54.75a3.14,3.14,0,0,1-2.69.48c-.15,0-.1-.3.15-.44s1-.24,1-.37-1-.51-2-.58a3.74,3.74,0,0,0-1,.11c-.93.19-2.29,1.7-2.83,3.33-.44,1.34-1.05,2.36-.35,3s1.29-.2,1.88-1.71a3.26,3.26,0,0,1,1.56-1.57,1.39,1.39,0,0,1,1.92-.22s0,.33-.37.32a1.37,1.37,0,0,0-1.12.49c-.13.3,0,.71,0,1.14s-.88.32-.31,1.18c0,.07-.5.27-.7.14s0-.24-.14-.29c-.31-.12-.82.6-.9.67a4.32,4.32,0,0,1-1.86.76,32.67,32.67,0,0,0-3.82,1.3c-1.12.5-.93,1.31.26,1.87.54.25,2-.39,2.78-.67a5,5,0,0,1,2.11-.45c.51.14-1.67,2.68-1.63,3.07.08.68,1.06,1.44,1.52.61.2-.38.39-.89.68-1.47s.62-.92.85-1.32c.33-.56.64-1.12.8-1.07.36.13.3.73.62,1.56a10.64,10.64,0,0,0,4.65,5c1.07.52,1.92,0,1.46-1.35a7,7,0,0,0-.25-.7c-.21-.52-.21,0-1.23-.71-.29-.22-1.48-1.46-2.12-2a5.38,5.38,0,0,1-1.07-1.63c-.19-.43-.71-.64.19-1.08.55-.26.17-.9.63-1s1.14-.05,1.65-.16,1.38-.58,2.34-.92,2.15-2,1.65-2.75c-.33-.49-1-.71-1.88-1.24-.44-.27-1.39.27-.91-.4.32-.46.37-.68.87-.7.79,0,3.09,1.23,3.4-.1C70.08,163.28,68.19,163.62,67.74,162.81Zm-1.87,4.82c-.1.8-1.27,1.36-2.09,1.56a9.41,9.41,0,0,0-.86.39c-.5.11-.45-.13,0-.62.26-.27.85-.87.48-1.3s.26-1.47.6-1.16C64.66,167.08,65.9,167.43,65.87,167.63Zm86.3-12.24c1-1.13,1.62-2.38,2.18-3.11.31-.39.77-.69,1.05-1.12s.68.14,1,.08c.78-.15,1.49-.76,1.46-1.36a1.62,1.62,0,0,0-1-1.35c-1.38-.66-2.4,2.44-3.21,2.2-.18-.06-.2-1.34-.19-1.09a5.17,5.17,0,0,0-.7-2.42c-.39-.62-.72-.55-1.08-.78s-.51-.47-.93-.51a1.29,1.29,0,0,0-1.48,1.39c0,.75.64,2,.24,2.52s-.91.5-1.1.15c-.26-.5-.31-1.54-.64-1.72-.18-.11-.6.18-.84.64s.26,1.55-.29,1.76c-.26.1-.58-.43-.81-.37-.65.15.1,1.87-.28,2.36a1.74,1.74,0,0,0-.16,2.22c.29.59,1,1.42,1.35,2.11s1.2,1.26,1.14,1.64-.26.16-.51.5.77,3.08,2.25,3.93c.28.16,1,.21,1.27-.21.4-.79-1.23-1.24-1.54-2.09-.22-.56,1-2.13,1.68-3.32A10.52,10.52,0,0,1,152.17,155.39ZM149,157.53c-.25.11-.56-.49-1-.92-.64-.61-1.47-1.38-1.41-1.52s0-1.18.24-1.14c.43.07.85,1.19,1.11,1.54.42.74.64.27.85,1.14C149,157.13,149.37,157.38,149,157.53Zm.44-2.88c-.29.08-.39.23-.66-.12a2.18,2.18,0,0,1-.4-2.17c.59-.82.56.55.62.72C149.15,153.47,149.76,154.57,149.48,154.65Zm.89-5.66c.21-.71,0-.88.17-1.2s.82-.29,1.25.07.68.94.4,1.28-.79-.07-1,.13-.15.87.26.83.59.36.69.77c0,.17-.12.55-.06.7s.53.28.63.49-.23.84-.6.81c-.58-.05-.47-1.18-.71-1.42C150.14,150.19,150.28,149.31,150.37,149Zm.27,5.08-.18-.18c-.42-.15-.35-1.32-.31-1.36C150.74,152,151.65,154.22,150.64,154.07ZM37.49,58.52,25.26,50.84l-1.42,2.25,12.24,7.68ZM137,165.85c.47-.81.56-1.75-.33-1.9a1.15,1.15,0,0,0-1,.2c-.95.53-.58,1-1.22,1.34-.27.17-.54-1,0-1.45,1-.86,2-2.15,1.67-3.27-.28-.92-.78-1.68-2-.6a6.31,6.31,0,0,0-1.91,2.73c-.6,1.72-.95,3.63-1.79,4.78-.54.74-.62.3-1.26.84-1.78,1.53-2.75,2.94-1.89,3.85a1.79,1.79,0,0,0,1.89.33c.56-.17.89-.63,1-.31a17,17,0,0,1-.62,2.7,6.74,6.74,0,0,1-1.13,2.17c-1,1.26-1.3,1.69-1,2.09a1.11,1.11,0,0,0,1.57.07c.61-.42,2.75-3.6,3.43-7.14a13.49,13.49,0,0,1,.74-1.87c.25-.69.09-1.15.48-1.62C134.68,167.37,136.36,166.88,137,165.85Zm-17.73,11.61c-.63,0-.71.79-.77,1.42l0,.48c-.19.93-1.8,1.89-3.23,2.32l-.38.12a2.32,2.32,0,0,1-2,0,1.88,1.88,0,0,1-.62-1.55,1.14,1.14,0,0,1,.49-1.09c.13-.07.17,0,.22.05s.31.3,1-.15c.07,0,.1-.2.15-.52a4,4,0,0,1,.18-.72l.28-.52.19-.36a1.62,1.62,0,0,0-.45-1.57,1.92,1.92,0,0,0-1.88-.4,9.43,9.43,0,0,0-2.92,1.69,4.85,4.85,0,0,1-2.32,1.25.85.85,0,0,1-.55-.22.53.53,0,0,0-.43-.15c-.21.07-.43.4-.73,1.12a2.83,2.83,0,0,0-.11.74c0,.51-.1,1.15-.35,1.32a.26.26,0,0,1-.23,0,.32.32,0,0,1-.21-.18c-.17-.39.25-1.23.25-1.24s.12-.73.12-.73A2.28,2.28,0,0,1,105,178c.39-1,1.3-1.21,2.26-1.43a3.51,3.51,0,0,0,1.36-.9c.24-.34-.12-.7-.4-1l0-.06a1.12,1.12,0,0,0-1.41-.36,7.31,7.31,0,0,0-1.47,1.33,18.66,18.66,0,0,1-1.35,1.32l-.16.13c-1,.79-2,1.75-2,2.23a.26.26,0,0,0,.16.22c.39.2.77-.22,1.11-.6s.5-.55.67-.43a.18.18,0,0,1,.09.14c0,.11,0,.26-.2.46l-.07.1a1.91,1.91,0,0,0-.45,1.13c-.12,1,.07,1.16.38,1.51l.33.39a1.43,1.43,0,0,1,.16.72l0,.24a.49.49,0,0,0,.51.21.19.19,0,0,1,.23.1,1.09,1.09,0,0,1-.06,1s0,0-.08-.05-.45-.13-.58-.11c-.35,0-.46.34-.56.59l-.07.19a1.17,1.17,0,0,0,.56,1.7,1,1,0,0,0,1.14.09c.48-.25.57-1.06.65-1.91l0-.28a7.92,7.92,0,0,1,.38-1.87,2,2,0,0,0,.11-1.13v-.42a1.45,1.45,0,0,1,.77-1,3.75,3.75,0,0,0,.64-.5l.5-.52a7.33,7.33,0,0,1,2-1.6A6.64,6.64,0,0,0,111,177a4.08,4.08,0,0,1,1.17-.77l.08,0c.35-.11,1-.33,1.23-.1a1.35,1.35,0,0,1,.16.91.23.23,0,0,1-.24.14c-.2,0-.22-.12-.24-.3s0-.25-.14-.32a2.09,2.09,0,0,0-.83,0c-.23,0-.41.31-.62.62a3.9,3.9,0,0,1-.54.69,3.2,3.2,0,0,0-.73,3,2.72,2.72,0,0,0,1.19,1.72l.21.16c.8.86,1.92,1.52,4.63.6a6.52,6.52,0,0,0,3.77-2.81,3.47,3.47,0,0,0-.19-2.64A.74.74,0,0,0,119.22,177.46ZM14,97.16l11.78.31.08-2.67-11.79-.31.11-4.13-2.66-.07-.29,10.91,2.66.07ZM16.38,113a5.07,5.07,0,0,0,1.95-.69,4.36,4.36,0,0,0,1.1-1.37,5.22,5.22,0,0,0,.33-.88,8.55,8.55,0,0,0,.24-.91l.24-1,.22-1.08.11-.46a3.83,3.83,0,0,1,.28-.78A1.25,1.25,0,0,1,22,105a1.38,1.38,0,0,1,1.31.55,3.35,3.35,0,0,1,.66,1.73,7.14,7.14,0,0,1-.23,2.73,7.34,7.34,0,0,1-1.09,2.3l3.07-.37a7.87,7.87,0,0,0,.94-5.1A5.65,5.65,0,0,0,25,103.34a4,4,0,0,0-3.43-1.06,3.57,3.57,0,0,0-2.84,1.66,9.59,9.59,0,0,0-1.15,3c-.08.37-.17.86-.28,1.46a4.44,4.44,0,0,1-.3,1.1,1.12,1.12,0,0,1-.9.8c-1,.12-1.51-.56-1.68-2a7.34,7.34,0,0,1,.84-4.35l-2.87.35a8,8,0,0,0-.67,4.37,5.31,5.31,0,0,0,1.54,3.42A3.7,3.7,0,0,0,16.38,113Zm3.29-29.37A7.59,7.59,0,0,0,25.4,83a6.66,6.66,0,0,0,3.28-4.36,6.57,6.57,0,0,0-.12-3.84l-2.9-.74A5.26,5.26,0,0,1,26,77.83,4.22,4.22,0,0,1,24,80.59a4.84,4.84,0,0,1-3.61.39,4.81,4.81,0,0,1-3-2,4.11,4.11,0,0,1-.54-3.34,5.64,5.64,0,0,1,1.92-3l-2.9-.73a7.06,7.06,0,0,0-.92,8.52A7.57,7.57,0,0,0,19.67,83.63ZM31,70.91,25.19,68.3,27.61,63l5.77,2.62,1.1-2.42-13.17-6-1.09,2.42,4.92,2.23-2.42,5.35L17.8,65l-1.11,2.44,13.17,6Zm-1,51.72-3.57-.26-1.59-5.27,2.84-2.19-.82-2.72L14.53,121.7l.73,2.46,15.52,1.16Zm-11.52-.75,4.26-3.26,1.09,3.65Zm144.32,7.83-1.21,2.36,5.82,3,4.74,8.07,1.4-2.72-3.09-5.24,6.05-.53,1.44-2.81-9.38.84Zm-131.69-4-2.38,1.19,3.19,6.33-3.32,1.67-2.49-5-2.34,1.18,2.49,5-2.49,1.25-3.09-6.14-2.38,1.2,4.29,8.53,12.91-6.5ZM159,159.1c-.39-.54-.22-.6-.42-.79-.41-.36-.77-.32-.76-.51,0-.62.8-1.11.92-1.27a3.6,3.6,0,0,0,.88-1.25c.2-1-1.24-1.09-1.61-.88s-1.23,2-1.9,2.76c-.25.3-.47.24-.64.09-.56-.51,1.16-2.14.56-2.68-.88-.79-1.77-.49-2.47.51,0,0-.82,1.28-1.66,2.33-.7.88-1.06,2.55-.28,2.86s1.5-.44,1.67-1.35c.05-.3,0-.34-.11-.6s.19-.46.18-.65c0-.55-.06-.86.36-.82.15,0,.51.66.59.84a2,2,0,0,1,.14,1.34c-.53,1.37-1.31,2.72-.74,3.45a1.66,1.66,0,0,0,1.26.08c.35-.19.28-.52.5-1.25.09-.28.66-.61.75-.86.16-.43.17-1.19.4-1.14a2.62,2.62,0,0,1,1.27,2.08,1.94,1.94,0,0,1-.32,1.58c-.12.09-.67.83-.24,1.35a1.08,1.08,0,0,0,1.37.33c1.3-.7,1-2.13.87-3.62A4.33,4.33,0,0,0,159,159.1Z"/></g></g></svg>